<?xml version="1.0" standalone="no"?>
<!DOCTYPE svg PUBLIC "-//W3C//DTD SVG 20010904//EN"
 "http://www.w3.org/TR/2001/REC-SVG-20010904/DTD/svg10.dtd">
<svg version="1.0" xmlns="http://www.w3.org/2000/svg"
 width="500.000000pt" height="500.000000pt" viewBox="0 0 500.000000 500.000000"
 preserveAspectRatio="xMidYMid meet">
<metadata>
Created by potrace 1.11, written by Peter Selinger 2001-2013
</metadata>
<g transform="translate(0.000000,500.000000) scale(0.100000,-0.100000)"
fill="#000000" stroke="none">
<path d="M2467 4980 c-14 -11 -28 -20 -32 -20 -3 0 -50 -26 -103 -57 -53 -31
-122 -71 -152 -88 -50 -27 -229 -129 -313 -179 -18 -10 -205 -118 -417 -241
-212 -122 -511 -295 -665 -385 -154 -89 -300 -173 -325 -187 -25 -14 -63 -37
-85 -51 l-40 -26 0 -1247 0 -1248 143 -83 c138 -80 826 -476 907 -523 22 -12
92 -53 155 -90 63 -37 252 -146 420 -242 168 -97 330 -190 360 -208 30 -18 84
-49 119 -68 l64 -34 146 83 c80 46 153 88 161 93 8 5 107 62 220 127 113 65
376 216 585 337 209 121 398 230 420 242 52 29 180 104 323 189 62 36 134 78
160 92 94 53 137 78 142 85 3 4 5 568 5 1253 l0 1247 -22 12 c-12 7 -64 36
-115 66 -51 30 -109 63 -128 74 -19 10 -87 50 -150 87 -63 37 -205 119 -315
182 -110 64 -299 173 -420 243 -121 70 -244 141 -274 157 -30 17 -94 55 -144
84 -49 30 -91 54 -93 54 -2 0 -41 22 -86 49 -136 80 -418 241 -422 241 -2 0
-15 -9 -29 -20z"/>
</g>
</svg>
